HIERARCHY
ROOT Hips
{
	OFFSET 0.000000 89.005402 0.000000
	CHANNELS 6 Xposition Yposition Zposition Xrotation Yrotation Zrotation
	JOINT Spine
	{
		OFFSET 0.116900 10.681000 0.373400
		CHANNELS 3 Xrotation Yrotation Zrotation
		JOINT Spine1
		{
			OFFSET 0.000000 13.840401 0.053500
			CHANNELS 3 Xrotation Yrotation Zrotation
			JOINT Spine2
			{
				OFFSET 0.000000 14.712700 -0.366200
				CHANNELS 3 Xrotation Yrotation Zrotation
				JOINT Neck
				{
					OFFSET 0.000000 35.415497 -3.314200
					CHANNELS 3 Xrotation Yrotation Zrotation
					JOINT Head
					{
						OFFSET 0.000000 16.899200 1.218300
						CHANNELS 3 Xrotation Yrotation Zrotation
						JOINT HeadTop_End
						{
							OFFSET 0.000000 22.206207 2.192500
							CHANNELS 3 Xrotation Yrotation Zrotation
							End Site
							{
								OFFSET 0.000000 22.314178 0.000000
							}
						}
					}
				}
				JOINT LeftShoulder
				{
					OFFSET 12.896400 26.716293 -4.548400
					CHANNELS 3 Xrotation Yrotation Zrotation
					JOINT LeftArm
					{
						OFFSET 19.027000 -4.857010 -1.718400
						CHANNELS 3 Xrotation Yrotation Zrotation
						JOINT LeftForeArm
						{
							OFFSET 24.179897 0.000000 0.000000
							CHANNELS 3 Xrotation Yrotation Zrotation
							JOINT LeftHand
							{
								OFFSET 27.156403 0.000000 0.000000
								CHANNELS 3 Xrotation Yrotation Zrotation
								JOINT LeftHandIndex1
								{
									OFFSET 16.441200 0.000000 0.000000
									CHANNELS 3 Xrotation Yrotation Zrotation
									JOINT LeftHandIndex2
									{
										OFFSET 4.821899 0.000000 0.000000
										CHANNELS 3 Xrotation Yrotation Zrotation
										JOINT LeftHandIndex3
										{
											OFFSET 6.386497 0.000000 0.000000
											CHANNELS 3 Xrotation Yrotation Zrotation
											JOINT LeftHandIndex4
											{
												OFFSET 5.188988 0.000000 0.000000
												CHANNELS 3 Xrotation Yrotation Zrotation
												End Site
												{
													OFFSET -0.178703 5.185913 0.000177
												}
											}
										}
									}
								}
								JOINT LeftHandThumb1
								{
									OFFSET 6.534897 -5.032593 5.900300
									CHANNELS 3 Xrotation Yrotation Zrotation
									JOINT LeftHandThumb2
									{
										OFFSET 3.818176 -2.204422 2.204423
										CHANNELS 3 Xrotation Yrotation Zrotation
										JOINT LeftHandThumb3
										{
											OFFSET 3.252098 -1.877594 1.877601
											CHANNELS 3 Xrotation Yrotation Zrotation
											JOINT LeftHandThumb4
											{
												OFFSET 5.251778 -3.032120 3.032117
												CHANNELS 3 Xrotation Yrotation Zrotation
												End Site
												{
													OFFSET 0.000023 6.780014 0.000000
												}
											}
										}
									}
								}
							}
						}
					}
				}
				JOINT RightShoulder
				{
					OFFSET -12.896300 26.716293 -4.548400
					CHANNELS 3 Xrotation Yrotation Zrotation
					JOINT RightArm
					{
						OFFSET -19.027000 -4.857010 -1.718400
						CHANNELS 3 Xrotation Yrotation Zrotation
						JOINT RightForeArm
						{
							OFFSET -24.179897 0.000000 0.000000
							CHANNELS 3 Xrotation Yrotation Zrotation
							JOINT RightHand
							{
								OFFSET -27.156403 0.000000 0.000000
								CHANNELS 3 Xrotation Yrotation Zrotation
								JOINT RightHandThumb1
								{
									OFFSET -6.591202 -4.852203 5.988100
									CHANNELS 3 Xrotation Yrotation Zrotation
									JOINT RightHandThumb2
									{
										OFFSET -3.818176 -2.204422 2.204423
										CHANNELS 3 Xrotation Yrotation Zrotation
										JOINT RightHandThumb3
										{
											OFFSET -3.252098 -1.877594 1.877601
											CHANNELS 3 Xrotation Yrotation Zrotation
											JOINT RightHandThumb4
											{
												OFFSET -5.251778 -3.032120 3.032117
												CHANNELS 3 Xrotation Yrotation Zrotation
												End Site
												{
													OFFSET -0.000023 6.780014 0.000000
												}
											}
										}
									}
								}
								JOINT RightHandIndex1
								{
									OFFSET -16.029404 0.000000 0.000000
									CHANNELS 3 Xrotation Yrotation Zrotation
									JOINT RightHandIndex2
									{
										OFFSET -5.213303 0.000000 0.000000
										CHANNELS 3 Xrotation Yrotation Zrotation
										JOINT RightHandIndex3
										{
											OFFSET -6.386528 0.000000 0.000000
											CHANNELS 3 Xrotation Yrotation Zrotation
											JOINT RightHandIndex4
											{
												OFFSET -5.189026 0.000000 0.000000
												CHANNELS 3 Xrotation Yrotation Zrotation
												End Site
												{
													OFFSET 0.236702 5.183624 0.001972
												}
											}
										}
									}
								}
							}
						}
					}
				}
			}
		}
	}
	JOINT LeftUpLeg
	{
		OFFSET 14.073000 -7.904099 -1.463000
		CHANNELS 3 Xrotation Yrotation Zrotation
		JOINT LeftLeg
		{
			OFFSET -0.109806 -34.073280 4.093200
			CHANNELS 3 Xrotation Yrotation Zrotation
			JOINT LeftFoot
			{
				OFFSET 0.109806 -29.899420 -6.319000
				CHANNELS 3 Xrotation Yrotation Zrotation
				JOINT LeftToeBase
				{
					OFFSET 1.551100 -14.988700 20.535801
					CHANNELS 3 Xrotation Yrotation Zrotation
					JOINT LeftToe_End
					{
						OFFSET 0.221200 0.570800 13.248301
						CHANNELS 3 Xrotation Yrotation Zrotation
						End Site
						{
							OFFSET 0.000000 13.262435 0.000000
						}
					}
				}
			}
		}
	}
	JOINT RightUpLeg
	{
		OFFSET -13.839300 -7.904099 -1.463000
		CHANNELS 3 Xrotation Yrotation Zrotation
		JOINT RightLeg
		{
			OFFSET 0.109694 -34.073219 4.093300
			CHANNELS 3 Xrotation Yrotation Zrotation
			JOINT RightFoot
			{
				OFFSET -0.109694 -29.899384 -6.319200
				CHANNELS 3 Xrotation Yrotation Zrotation
				JOINT RightToeBase
				{
					OFFSET -1.551100 -14.988700 20.535801
					CHANNELS 3 Xrotation Yrotation Zrotation
					JOINT RightToe_End
					{
						OFFSET -0.221200 0.570900 13.248299
						CHANNELS 3 Xrotation Yrotation Zrotation
						End Site
						{
							OFFSET 0.000000 13.262440 0.000000
						}
					}
				}
			}
		}
	}
}
MOTION
Frames: 4
Frame Time: 0.033333
-0.153296 85.889275 1.720781 -6.704414 1.459598 -0.884634 5.016049 -1.746411 2.010955 1.655232 -0.260646 -1.800628 1.648741 -0.283089 -1.802881 -1.700181 -1.095542 1.416734 0.138358 -4.400260 5.316378 -0.000000 -0.000001 -0.000000 0.506792 1.392148 -1.336142 22.913456 -60.672912 -50.205825 0.000005 -20.973839 -0.000011 18.812260 -11.755768 17.464753 -0.986905 1.692868 19.328073 1.938266 4.793255 -44.014627 0.252832 1.852294 -15.544237 0.000000 -0.000001 -0.000000 3.124168 7.269202 5.502659 3.080248 17.459365 0.296973 -4.568000 -5.466973 3.497150 0.000000 -0.000001 0.000001 0.175525 -0.406943 11.071896 18.819162 50.408022 50.464774 -0.000007 23.329310 0.000010 14.312436 14.699090 -11.745216 3.588366 -18.589251 0.329416 12.479569 -14.148276 -2.161671 -0.045209 -2.948356 -2.887912 -0.000001 -0.000002 0.000002 1.344646 -5.337416 17.301400 1.265896 -4.005196 35.067629 0.051950 -0.850145 6.993647 -0.000001 0.000001 0.000001 -6.464523 9.649443 3.522162 23.639281 2.167840 1.145137 -10.678368 5.048947 -1.750505 -0.000036 -0.000003 0.000001 0.000000 0.000000 0.000000 -4.783279 -13.627711 -4.268054 20.555929 2.432411 -1.499887 -9.082172 -2.581476 3.610777 -0.443079 0.000005 0.000001 0.000000 -0.000001 -0.000000 
-0.156994 85.885284 1.676569 -6.736900 1.485335 -0.871728 5.092252 -1.777324 2.004138 1.647503 -0.264097 -1.810541 1.640864 -0.286786 -1.812841 -1.673455 -1.088246 1.416908 0.168933 -4.361869 5.300504 0.000000 -0.000000 0.000000 0.504396 1.399190 -1.336099 23.013378 -60.544204 -50.091265 0.000024 -21.050339 0.000016 18.745579 -11.731253 17.476449 -0.982665 1.711757 19.188829 1.940503 4.795565 -44.041398 0.253666 1.855311 -15.569944 0.000000 0.000001 -0.000000 3.174952 7.280179 5.394373 3.080259 17.459381 0.296982 -4.559063 -5.450927 3.495516 0.000001 0.000001 -0.000001 0.158066 -0.499766 11.072080 18.811077 50.467066 50.404890 0.000008 23.326225 -0.000011 14.364166 14.714401 -11.752147 3.494410 -18.503493 0.316507 12.558702 -14.234691 -2.195807 -0.034774 -2.967069 -2.885505 -0.000000 -0.000002 0.000003 1.339271 -5.331239 17.246658 1.268446 -4.008818 35.104164 0.052730 -0.856473 7.045993 0.000000 -0.000002 -0.000000 -6.481869 9.683521 3.512202 23.649539 2.185934 1.169072 -10.641855 4.984266 -1.758820 -0.000014 0.000003 0.000000 0.000000 -0.000000 0.000000 -4.829551 -13.977027 -4.290683 20.599524 2.687021 -1.583725 -9.073983 -2.524670 3.578240 -0.443068 0.000006 0.000001 -0.000000 0.000001 -0.000000 
-0.164743 85.882988 1.635283 -6.747103 1.513118 -0.856297 5.147482 -1.815149 1.981713 1.620861 -0.267908 -1.821299 1.614047 -0.290616 -1.823640 -1.600143 -1.085157 1.446128 0.257191 -4.295512 5.244905 -0.000000 0.000000 -0.000000 0.500475 1.409780 -1.335968 23.342151 -60.367862 -49.824693 -0.000013 -21.324245 -0.000008 18.771510 -11.594608 17.483671 -0.978689 1.725912 19.074726 1.941957 4.797042 -44.058637 0.254423 1.857981 -15.593119 -0.000000 0.000001 0.000000 3.188744 7.283620 5.365979 3.080239 17.459396 0.296977 -4.546150 -5.427854 3.493179 0.000001 0.000000 -0.000001 0.124812 -0.672165 11.071904 18.991546 50.709968 50.222022 0.000003 23.327661 -0.000041 14.235100 14.729815 -11.709938 3.448779 -18.464522 0.308812 12.597146 -14.277176 -2.213127 -0.030040 -2.975440 -2.884343 -0.000003 0.000000 0.000000 1.339575 -5.331719 17.249216 1.268495 -4.008891 35.104724 0.052708 -0.856277 7.044532 0.000000 0.000000 0.000001 -6.516860 9.726906 3.505753 23.646795 2.187491 1.186382 -10.597332 4.921325 -1.762080 -0.000026 -0.000002 0.000001 0.000000 -0.000000 0.000000 -4.873592 -14.056761 -4.317716 20.631958 2.690960 -1.587301 -9.062571 -2.472940 3.567308 -0.443027 0.000002 -0.000000 0.000000 -0.000001 -0.000000 
-0.177018 85.883003 1.597757 -6.734400 1.542080 -0.840750 5.183796 -1.858739 1.941557 1.572886 -0.271795 -1.841836 1.565858 -0.294337 -1.844199 -1.465363 -1.093985 1.536397 0.434962 -4.192170 5.144241 -0.000000 -0.000000 0.000000 0.494543 1.421459 -1.335651 23.975096 -60.097940 -49.336126 0.000000 -21.886158 0.000020 18.865778 -11.303767 17.444126 -0.974770 1.737446 18.972807 1.939066 4.794080 -44.024329 0.253775 1.855638 -15.572918 0.000000 -0.000000 -0.000000 3.181841 7.282037 5.380462 3.080256 17.459398 0.296975 -4.527240 -5.393948 3.489711 0.000001 0.000001 -0.000000 0.049293 -1.060503 11.069945 19.342541 51.192285 49.937115 -0.000017 23.335399 0.000003 13.968707 14.752242 -11.581557 3.495740 -18.510813 0.302566 12.541832 -14.216795 -2.189498 -0.035818 -2.964815 -2.885415 -0.000002 0.000000 0.000000 1.347364 -5.340865 17.327539 1.264994 -4.003951 35.054966 0.051601 -0.847263 6.970032 0.000001 -0.000000 -0.000000 -6.569708 9.772487 3.505654 23.631672 2.176504 1.196079 -10.545430 4.861166 -1.762349 -0.000017 -0.000010 -0.000001 -0.000000 -0.000000 0.000000 -4.909531 -13.845424 -4.342339 20.646883 2.437715 -1.507163 -9.045248 -2.440759 3.577675 -0.442969 0.000010 -0.000000 0.000000 -0.000000 -0.000000 
